<svg xmlns="http://www.w3.org/2000/svg" width="315.000000pt" height="315.000000pt" viewBox="0 0 315.000000 315.000000" preserveAspectRatio="xMidYMid meet"><metadata>
Created by potrace 1.16, written by Peter Selinger 2001-2019
</metadata><g transform="translate(0.000000,315.000000) scale(0.100000,-0.100000)" fill="#000000" stroke="none"><path d="M512 1923 c-41 -20 -69 -54 -83 -103 -35 -117 77 -229 199 -198 58 14 108 71 117 132 19 126 -118 226 -233 169z m137 -31 c37 -20 71 -73 71 -110 0 -63 -53 -126 -116 -138 -68 -13 -154 60 -154 130 0 70 66 136 135 136 17 0 46 -8 64 -18z"></path><path d="M2701 1770 c-103 -24 -157 -154 -98 -240 38 -57 71 -75 137 -75 66 0 99 18 138 76 20 28 23 44 20 92 -8 106 -93 170 -197 147z m116 -47 c49 -32 68 -117 40 -173 -18 -35 -74 -70 -114 -70 -102 0 -166 107 -119 199 35 66 127 87 193 44z"></path></g></svg>